<svg width="18" height="22" viewBox="0 0 18 22" fill="none" xmlns="http://www.w3.org/2000/svg">
<path d="M8.59376 0C6.31538 0.00268787 4.13109 0.908962 2.52003 2.52002C0.90897 4.13108 0.00269701 6.31537 9.14288e-06 8.59375C-0.00271968 10.4556 0.605463 12.267 1.73126 13.75C1.73126 13.75 1.96563 14.0586 2.00392 14.1031L8.59376 21.875L15.1867 14.0992C15.2211 14.0578 15.4563 13.75 15.4563 13.75L15.457 13.7477C16.5823 12.2653 17.1902 10.4548 17.1875 8.59375C17.1848 6.31537 16.2785 4.13108 14.6675 2.52002C13.0564 0.908962 10.8721 0.00268787 8.59376 0ZM8.59376 4.6875C9.05731 4.6875 9.51045 4.82496 9.89588 5.08249C10.2813 5.34003 10.5817 5.70607 10.7591 6.13434C10.9365 6.5626 10.9829 7.03385 10.8925 7.48849C10.802 7.94314 10.5788 8.36075 10.251 8.68853C9.92326 9.01631 9.50565 9.23953 9.051 9.32997C8.59636 9.4204 8.12511 9.37399 7.69685 9.19659C7.26858 9.0192 6.90254 8.7188 6.645 8.33337C6.38747 7.94794 6.25001 7.4948 6.25001 7.03125C6.25063 6.40984 6.49776 5.81406 6.93716 5.37465C7.37657 4.93525 7.97235 4.68812 8.59376 4.6875ZM11.7188 13.2812H10.1563V11.7188H7.03126V13.2812H5.46876V11.7188C5.46917 11.3045 5.63393 10.9073 5.92686 10.6144C6.2198 10.3214 6.61699 10.1567 7.03126 10.1562H10.1563C10.5705 10.1567 10.9677 10.3214 11.2607 10.6144C11.5536 10.9073 11.7183 11.3045 11.7188 11.7188V13.2812Z" fill="#767676"/>
</svg>
