<svg width="18" height="14" viewBox="0 0 18 14" fill="none" xmlns="http://www.w3.org/2000/svg">
<path d="M16.8889 0.00585222C16.8132 -0.00195074 16.7368 -0.00195074 16.6611 0.00585222H1.10556C1.00586 0.00738841 0.90682 0.0223374 0.811111 0.0502966L8.83889 8.04474L16.8889 0.00585222Z" fill="#767676"/>
<path d="M17.7111 0.778165L9.62222 8.83372C9.41404 9.04067 9.13243 9.15683 8.83889 9.15683C8.54535 9.15683 8.26374 9.04067 8.05556 8.83372L0.0388889 0.839276C0.0142441 0.929854 0.00117705 1.02319 0 1.11705V12.2282C0 12.5229 0.117063 12.8055 0.325437 13.0138C0.533811 13.2222 0.816426 13.3393 1.11111 13.3393H16.6667C16.9614 13.3393 17.244 13.2222 17.4523 13.0138C17.6607 12.8055 17.7778 12.5229 17.7778 12.2282V1.11705C17.7734 1.00131 17.7509 0.886963 17.7111 0.778165ZM1.87222 12.2282H1.1V11.4337L5.13889 7.42817L5.92222 8.2115L1.87222 12.2282ZM16.6556 12.2282H15.8778L11.8278 8.2115L12.6111 7.42817L16.65 11.4337L16.6556 12.2282Z" fill="#767676"/>
</svg>
