<svg preserveAspectRatio="none" width="100%" height="100%" overflow="visible" style="display: block;" viewBox="0 0 25 25" fill="none" xmlns="http://www.w3.org/2000/svg">
<g id="carbon:location-person-filled">
<path id="Vector" d="M12.5 9.375C12.9315 9.375 13.2812 9.02522 13.2812 8.59375C13.2812 8.16228 12.9315 7.8125 12.5 7.8125C12.0685 7.8125 11.7188 8.16228 11.7188 8.59375C11.7188 9.02522 12.0685 9.375 12.5 9.375Z" fill="var(--fill-0, #767676)"/>
<path id="Vector_2" d="M12.5 1.5625C10.2216 1.56519 8.03733 2.47146 6.42627 4.08252C4.81521 5.69358 3.90894 7.87787 3.90625 10.1562C3.90352 12.0181 4.51171 13.8295 5.6375 15.3125C5.6375 15.3125 5.87188 15.6211 5.91016 15.6656L12.5 23.4375L19.093 15.6617C19.1273 15.6203 19.3625 15.3125 19.3625 15.3125L19.3633 15.3102C20.4885 13.8278 21.0964 12.0173 21.0938 10.1562C21.0911 7.87787 20.1848 5.69358 18.5737 4.08252C16.9627 2.47146 14.7784 1.56519 12.5 1.5625V1.5625ZM12.5 6.25C12.9636 6.25 13.4167 6.38746 13.8021 6.64499C14.1875 6.90253 14.488 7.26857 14.6653 7.69684C14.8427 8.1251 14.8892 8.59635 14.7987 9.05099C14.7083 9.50564 14.4851 9.92325 14.1573 10.251C13.8295 10.5788 13.4119 10.802 12.9572 10.8925C12.5026 10.9829 12.0314 10.9365 11.6031 10.7591C11.1748 10.5817 10.8088 10.2813 10.5512 9.89587C10.2937 9.51044 10.1563 9.0573 10.1563 8.59375C10.1569 7.97234 10.404 7.37656 10.8434 6.93715C11.2828 6.49775 11.8786 6.25062 12.5 6.25V6.25ZM15.625 14.8438H14.0625V13.2812H10.9375V14.8438H9.375V13.2812C9.37542 12.867 9.54017 12.4698 9.83311 12.1769C10.126 11.8839 10.5232 11.7192 10.9375 11.7188H14.0625C14.4768 11.7192 14.874 11.8839 15.1669 12.1769C15.4598 12.4698 15.6246 12.867 15.625 13.2812V14.8438Z" fill="var(--fill-0, #767676)"/>
</g>
</svg>
