<svg preserveAspectRatio="none" width="100%" height="100%" overflow="visible" style="display: block;" viewBox="0 0 50 50" fill="none" xmlns="http://www.w3.org/2000/svg">
<g id="ion:thunderstorm-sharp">
<path id="Vector" d="M22.2041 3.36435C24.2749 2.92028 26.4216 2.97174 28.4688 3.51474C30.5159 4.05778 32.4059 5.07722 33.9844 6.48935L33.9883 6.49326C36.1139 8.37951 37.5782 10.8982 38.165 13.6788L39.6328 13.3692L39.6016 14.8692C41.5589 14.9094 43.4218 15.7191 44.7861 17.1231C46.1504 18.5273 46.9068 20.4125 46.8906 22.3702C46.8745 24.3279 46.0875 26.2007 44.7002 27.5821C43.313 28.9634 41.4371 29.7422 39.4795 29.7501H28.1738L27.8896 30.8858L27.1084 34.0108L26.6426 35.8751H29.7461L23.375 44.0655V39.1251H19.0146L20.5244 31.5431L20.8818 29.7501H11.9922C7.0679 29.7501 3.0625 25.7471 3.0625 20.8331C3.0625 16.0991 6.78212 12.2088 11.458 11.9327L12.3701 11.879L12.7402 11.045C13.6009 9.10972 14.9072 7.40519 16.5518 6.07041C18.1962 4.73568 20.1332 3.80848 22.2041 3.36435Z" stroke="var(--stroke-0, #E47176)" stroke-width="3"/>
<path id="Vector_2" d="M11.8019 34.3481L9.40244 39.1479L9.29013 39.0923L11.6905 34.2925L11.8019 34.3481Z" stroke="var(--stroke-0, #E47176)" stroke-width="3"/>
<path id="Vector_3" d="M13.3629 42.1618L11.7438 45.3991L11.6325 45.3434L13.2516 42.1061L13.3629 42.1618Z" stroke="var(--stroke-0, #E47176)" stroke-width="3"/>
<path id="Vector_4" d="M39.147 34.3493L36.7476 39.15L36.6353 39.0934L39.0357 34.2936L39.147 34.3493Z" stroke="var(--stroke-0, #E47176)" stroke-width="3"/>
<path id="Vector_5" d="M40.7095 42.1629L39.0904 45.4002L38.9791 45.3445L40.5982 42.1072L40.7095 42.1629Z" stroke="var(--stroke-0, #E47176)" stroke-width="3"/>
</g>
</svg>
